HIERARCHY
ROOT SpineBase
{
  OFFSET 0.000000 0.000000 0.000000
  CHANNELS 6 Xposition Yposition Zposition Zrotation Xrotation Yrotation
  JOINT SpineMid
  {
    OFFSET 0.000000 28.633918 0.000000
    CHANNELS 3 Zrotation Xrotation Yrotation
    JOINT SpineShoulder
    {
      OFFSET -0.008193 21.283594 -0.711295
      CHANNELS 3 Zrotation Xrotation Yrotation
      JOINT Neck
      {
        OFFSET -0.014333 7.048094 -0.538881
        CHANNELS 3 Zrotation Xrotation Yrotation
        JOINT Head
        {
          OFFSET -2.513426 11.610044 -0.248851
          CHANNELS 3 Zrotation Xrotation Yrotation
          End Site
          {
            OFFSET 0 0 0
          }
        }
      }
      JOINT ShoulderLeft
      {
        OFFSET -15.624161 -2.551097 5.101524
        CHANNELS 3 Zrotation Xrotation Yrotation
        JOINT ElbowLeft
        {
          OFFSET -3.927392 -24.984194 2.503808
          CHANNELS 3 Zrotation Xrotation Yrotation
          JOINT WristLeft
          {
            OFFSET -2.649974 -21.950744 -3.706470
            CHANNELS 3 Zrotation Xrotation Yrotation
            JOINT HandLeft
            {
              OFFSET 1.072252 -6.654227 -1.978310
              CHANNELS 3 Zrotation Xrotation Yrotation
              JOINT HandTipLeft
              {
                OFFSET -0.071250 -6.420841 -1.923041
                CHANNELS 3 Zrotation Xrotation Yrotation
                End Site
                {
                  OFFSET 0 0 0
                }
              }
              JOINT ThumbLeft
              {
                OFFSET -3.088818 0.093851 -0.582215
                CHANNELS 3 Zrotation Xrotation Yrotation
                End Site
                {
                  OFFSET 0 0 0
                }
              }
            }
          }
        }
      }
      JOINT ShoulderRight
      {
        OFFSET 15.179029 -2.664335 -5.729587
        CHANNELS 3 Zrotation Xrotation Yrotation
        JOINT ElbowRight
        {
          OFFSET 5.095600 -25.040248 -3.353601
          CHANNELS 3 Zrotation Xrotation Yrotation
          JOINT WristRight
          {
            OFFSET -0.899887 -20.674077 -5.958894
            CHANNELS 3 Zrotation Xrotation Yrotation
            JOINT HandRight
            {
              OFFSET -2.279633 -8.485965 -1.398742
              CHANNELS 3 Zrotation Xrotation Yrotation
              JOINT HandTipRight
              {
                OFFSET -0.400664 -6.881103 -1.184979
                CHANNELS 3 Zrotation Xrotation Yrotation
                End Site
                {
                  OFFSET 0 0 0
                }
              }
              JOINT ThumbRight
              {
                OFFSET -2.935538 1.896078 -0.281356
                CHANNELS 3 Zrotation Xrotation Yrotation
                End Site
                {
                  OFFSET 0 0 0
                }
              }
            }
          }
        }
      }
    }
  }
  JOINT HipLeft
  {
    OFFSET -5.899053 0.385868 -1.453705
    CHANNELS 3 Zrotation Xrotation Yrotation
    JOINT KneeLeft
    {
      OFFSET -7.348242 -28.484088 5.581258
      CHANNELS 3 Zrotation Xrotation Yrotation
      JOINT AnkleLeft
      {
        OFFSET -1.552745 -38.684311 7.241636
        CHANNELS 3 Zrotation Xrotation Yrotation
        JOINT FootLeft
        {
          OFFSET -3.242457 -3.749321 -12.564973
          CHANNELS 3 Zrotation Xrotation Yrotation
          End Site
          {
            OFFSET 0 0 0
          }
        }
      }
    }
  }
  JOINT HipRight
  {
    OFFSET 5.568947 0.952443 -5.085316
    CHANNELS 3 Zrotation Xrotation Yrotation
    JOINT KneeRight
    {
      OFFSET 6.436856 -34.191876 2.562130
      CHANNELS 3 Zrotation Xrotation Yrotation
      JOINT AnkleRight
      {
        OFFSET 1.568243 -32.062458 6.000313
        CHANNELS 3 Zrotation Xrotation Yrotation
        JOINT FootRight
        {
          OFFSET -3.529408 -3.280344 -13.536343
          CHANNELS 3 Zrotation Xrotation Yrotation
          End Site
          {
            OFFSET 0 0 0
          }
        }
      }
    }
  }
}
MOTION
Frames: 5
Frame Time: 0.033333
17.469610 73.041576 365.841266 1.100797 0.043545 15.732853 0.103534 -0.094486 -15.691566 0.068637 -0.138218 0.059250 10.595609 -10.033402 -0.995774 0.000000 0.000000 0.000000 -84.219744 47.482928 23.872180 -154.257309 58.326391 -72.673449 14.571821 -21.690989 45.038049 7.159135 11.855384 -29.549683 0.000000 0.000000 0.000000 0.000000 0.000000 0.000000 4.436188 1.014553 -0.740433 -4.570981 -4.218770 0.411001 3.576276 3.067179 -0.767324 -10.392600 9.286515 1.608067 0.000000 0.000000 0.000000 0.000000 0.000000 0.000000 0.234124 -1.564226 -15.011037 -1.307936 0.412390 -0.568372 0.358399 1.330028 -3.062977 0.000000 0.000000 0.000000 0.062863 1.640015 -15.387393 1.264317 -3.205683 0.008240 1.377160 -10.474601 -1.994248 0.000000 0.000000 0.000000
17.457337 73.139263 365.832341 1.108008 -0.046086 15.782885 0.124696 -0.178506 -15.738389 0.089367 -0.214592 0.063434 10.498939 -8.912608 -0.952129 0.000000 0.000000 0.000000 -84.278341 47.791255 24.310229 -156.014088 58.448791 -70.001170 18.766801 -21.003450 48.517543 5.363442 15.273335 -35.463913 0.000000 0.000000 0.000000 0.000000 0.000000 0.000000 3.737674 1.378905 -0.655257 -3.252206 -4.514791 0.147493 2.636412 3.861193 -0.697015 -10.390803 8.870648 1.700178 0.000000 0.000000 0.000000 0.000000 0.000000 0.000000 0.348579 -1.425402 -15.064567 -1.390629 0.250564 -0.560695 0.367731 1.391211 -3.078386 0.000000 0.000000 0.000000 0.058005 1.651599 -15.451639 1.172665 -3.194315 -0.002483 0.523678 -6.155346 -2.635858 0.000000 0.000000 0.000000
17.452042 73.239945 365.828364 1.135418 -0.124894 15.844344 0.140174 -0.240026 -15.796605 0.102752 -0.258128 0.067230 10.282542 -7.848103 -0.905100 0.000000 0.000000 0.000000 -82.979569 48.102838 24.032059 -158.671345 58.278924 -67.369678 20.187450 -20.607934 49.385375 2.939317 12.873592 -29.417031 0.000000 0.000000 0.000000 0.000000 0.000000 0.000000 3.791008 1.569958 -0.690198 -3.102799 -4.555763 0.095149 1.715755 4.273009 -0.579732 -9.421445 8.450009 1.573299 0.000000 0.000000 0.000000 0.000000 0.000000 0.000000 0.491258 -1.288244 -15.124482 -1.540482 0.094963 -0.562182 0.397499 1.431668 -3.094292 0.000000 0.000000 0.000000 0.119852 1.680512 -15.514593 0.989088 -3.275955 -0.031681 0.426103 -5.583046 -2.060139 0.000000 0.000000 0.000000
17.438044 73.352936 365.828779 1.140201 -0.136184 15.953181 0.157754 -0.243259 -15.904575 0.104217 -0.231458 0.068070 10.533125 -7.306962 -0.818902 0.000000 0.000000 0.000000 -81.135544 48.744240 23.590627 -161.998252 58.248865 -63.946454 19.463666 -20.455896 47.822990 0.547476 14.586015 -30.947549 0.000000 0.000000 0.000000 0.000000 0.000000 0.000000 3.712724 1.449919 -0.698707 -2.958854 -4.220606 0.073216 1.207630 4.039979 -0.433149 -7.432784 7.986954 1.151773 0.000000 0.000000 0.000000 0.000000 0.000000 0.000000 0.589401 -1.169560 -15.254469 -1.551265 -0.058916 -0.530996 0.325926 1.445413 -3.058082 0.000000 0.000000 0.000000 0.382183 1.743515 -15.588665 0.537008 -3.683743 -0.131392 1.347106 -8.838924 -0.767905 0.000000 0.000000 0.000000
17.419859 73.457207 365.833518 1.130021 -0.064336 16.078025 0.168670 -0.176903 -16.031287 0.094572 -0.132910 0.065866 11.290424 -7.557856 -0.710853 0.000000 0.000000 0.000000 -78.726636 49.433929 22.745765 -165.740844 58.095903 -59.931621 16.932077 -20.772450 44.586871 0.771808 17.622812 -36.153429 0.000000 0.000000 0.000000 0.000000 0.000000 0.000000 4.316708 1.024539 -0.791067 -3.482514 -3.863190 0.160669 0.964956 4.296642 -0.489431 -5.786892 7.380463 0.876877 0.000000 0.000000 0.000000 0.000000 0.000000 0.000000 0.688539 -1.239059 -15.365615 -1.678655 -0.017726 -0.549561 0.110549 3.408697 -3.782576 0.000000 0.000000 0.000000 0.307487 1.541947 -15.739461 0.324126 -3.588639 -0.162696 4.805173 -20.765894 1.462811 0.000000 0.000000 0.000000
